<?xml version="1.0" encoding="utf-8"?>
<svg xmlns="http://www.w3.org/2000/svg" viewBox="0 0 226.683 233.658" width="226.683px" height="233.659px" xmlns:bx="https://boxy-svg.com" preserveAspectRatio="none"><g id="LOGO_LAYER" transform="matrix(1.230958, 0, 0, 1.230958, 121.876656, -5.624747)"><path class="cls-1" d="M 20.612 25.921 C 1.33 26.102 -16.662 58.846 -19.034 63.922 C -32.988 44.166 -74.014 38.533 -79.178 85.884 C -82.393 127.103 -16.656 176.476 -16.656 176.476 C -14.607 177.412 57.11 92.772 59.41 79.085 C 69.196 46.424 39.688 25.744 20.612 25.921 Z" id="path4" style="fill: rgb(255, 255, 255);"/><path class="cls-2" d="M -10.653 47.621 C -13.563 51.685 -24.845 60.367 -27.004 57.734 L -27.004 92.232 L -78.432 97.618 L -75.416 113.634 L -27.004 108.583 L -27.004 166.717 C -22.2 180.677 -13.126 183.864 -10.641 162.295 L -10.641 106.874 L 44.092 101.083 L 56.696 83.516 L -10.641 90.523 L -10.641 47.621 L -10.653 47.621 Z" id="path5" style="fill: rgb(255, 0, 0);"/><path class="cls-2" d="M 3.608 122.452 C 3.504 124.565 3.238 126.69 2.823 128.803 C 4.728 128.352 6.668 128.145 8.573 128.202 C 8.158 126.17 7.892 124.103 7.788 122.013 C 9.89 121.898 11.98 121.932 14.058 122.128 C 13.804 120.246 13.804 118.318 14.058 116.378 C 11.98 117.013 9.89 117.498 7.788 117.821 C 7.892 115.708 8.158 113.583 8.573 111.47 C 6.668 111.921 4.728 112.128 2.823 112.071 C 3.238 114.103 3.504 116.17 3.608 118.26 C 1.506 118.376 -0.584 118.341 -2.662 118.145 C -2.408 120.027 -2.408 121.955 -2.662 123.895 C -0.584 123.26 1.506 122.775 3.608 122.452 Z" id="path6" style="fill: rgb(255, 0, 0);"/><path class="cls-2" d="M -35.006 121.528 C -37.085 122.163 -39.175 122.648 -41.276 122.971 C -41.173 120.858 -40.907 118.734 -40.491 116.62 C -42.397 117.071 -44.337 117.279 -46.242 117.221 C -45.826 119.253 -45.561 121.32 -45.457 123.41 C -47.558 123.526 -49.648 123.491 -51.727 123.295 C -51.473 125.177 -51.473 127.105 -51.727 129.045 C -49.648 128.41 -47.558 127.925 -45.457 127.602 C -45.561 129.715 -45.826 131.84 -46.242 133.953 C -44.337 133.503 -42.397 133.295 -40.491 133.352 C -40.907 131.32 -41.173 129.253 -41.276 127.163 C -39.175 127.048 -37.085 127.082 -35.006 127.279 C -35.26 125.396 -35.26 123.468 -35.006 121.528 Z" id="path7" style="fill: rgb(255, 0, 0);"/><path class="cls-2" d="M 7.8 71.505 C 7.904 69.392 8.169 67.267 8.585 65.154 C 6.68 65.604 4.74 65.812 2.834 65.754 C 3.25 67.787 3.516 69.854 3.619 71.944 C 1.518 72.059 -0.572 72.025 -2.651 71.828 C -2.397 73.711 -2.397 75.639 -2.651 77.579 C -0.572 76.944 1.518 76.47 3.619 76.136 C 3.516 78.249 3.25 80.373 2.834 82.487 C 4.74 82.036 6.68 81.828 8.585 81.886 C 8.169 79.854 7.904 77.787 7.8 75.697 C 9.901 75.581 11.991 75.616 14.07 75.812 C 13.816 73.93 13.816 72.002 14.07 70.062 C 11.991 70.697 9.901 71.182 7.8 71.505 Z" id="path8" style="fill: rgb(255, 0, 0);"/><path class="cls-2" d="M -41.276 76.667 C -41.173 74.554 -40.907 72.429 -40.491 70.316 C -42.397 70.766 -44.337 70.974 -46.242 70.916 C -45.826 72.948 -45.561 75.015 -45.457 77.105 C -47.558 77.221 -49.648 77.186 -51.727 76.99 C -51.473 78.872 -51.473 80.801 -51.727 82.741 C -49.648 82.105 -47.558 81.62 -45.457 81.297 C -45.561 83.41 -45.826 85.535 -46.242 87.648 C -44.337 87.198 -42.397 86.99 -40.491 87.048 C -40.907 85.015 -41.173 82.948 -41.276 80.858 C -39.175 80.743 -37.085 80.778 -35.006 80.974 C -35.26 79.092 -35.26 77.163 -35.006 75.223 C -37.085 75.858 -39.175 76.343 -41.276 76.667 Z" id="path9" style="fill: rgb(255, 0, 0);"/></g><defs/><path class="cls-1" d="M 99.722 231.541 C 101.585 233.574 104.305 233.076 105.56 230.435 C 135.35 167.569 225.843 139.135 225.843 59.033 C 225.843 29.922 206.246 0.69 168.566 0.013 C 132.699 -0.635 100.509 22.469 97.152 59.87 C 96.145 36.188 80.613 25.269 62.7 25.269 C 27.461 25.269 -1.402 57.081 0.053 104.952 C 2.474 180.242 74.855 203.964 99.722 231.541 Z M 93.326 77.913 C 94.282 81.669 98.865 81.54 99.901 77.823 C 115.414 21.593 186.748 15.446 186.748 72.384 C 186.748 117.336 107.075 165.298 101.007 207.969 C 86.591 179.973 33.638 164.6 33.638 103.747 C 33.638 51.96 83.991 41.08 93.326 77.913 Z" style="stroke-width: 0.996;" id="object-0"/></svg>