<?xml version="1.0" encoding="utf-8"?>
<svg xmlns="http://www.w3.org/2000/svg" viewBox="0 0 226.683 233.658" width="226.683px" height="233.659px" xmlns:bx="https://boxy-svg.com" preserveAspectRatio="none"><defs><circle id="rb" r="145.663293" fill="none" stroke="#013ba6" stroke-width="39.030362"/><circle id="rw" r="145.663293" fill="none" stroke="#fff" stroke-width="17.346827"/></defs><g id="svg-1" transform="matrix(1.100921, 0, 0, 1.100921, 148.676819, -3.902604)"><g transform="matrix(1, 0, 0, 1, -103.14296, 48.528271)"><path class="cls-1" d="M 142.668 3.825 C 105.438 -43.615 57.077 3.984 56.84 14.818 C 56.792 17.001 55.274 16.689 54.797 15.068 C 47.024 -11.34 -37.016 5.804 -3.916 76.899 C -1.753 81.545 1.586 91.353 4.289 94.887 C 57.931 165.007 62.718 159.163 90.557 114.695 C 99.571 100.296 159.798 25.653 142.668 3.825 Z" id="path-2" style="fill: rgb(255, 0, 0);"/><polygon class="cls-1" points="48.729 58.595 28.667 60.701 28.667 77.896 48.729 75.778 48.729 95.838 65.923 94.038 65.923 73.977 85.985 71.871 85.985 54.676 65.923 56.783 65.923 36.734 48.729 38.535" id="polygon1" style="fill: rgb(255, 255, 255); stroke-width: 1.225;"/></g></g><path class="cls-1" d="M 99.722 231.541 C 101.585 233.574 104.305 233.076 105.56 230.435 C 135.35 167.569 225.843 139.135 225.843 59.033 C 225.843 29.922 206.246 0.69 168.566 0.013 C 132.699 -0.635 100.509 22.469 97.152 59.87 C 96.145 36.188 80.613 25.269 62.7 25.269 C 27.461 25.269 -1.402 57.081 0.053 104.952 C 2.474 180.242 74.855 203.964 99.722 231.541 Z M 93.326 77.913 C 94.282 81.669 98.865 81.54 99.901 77.823 C 115.414 21.593 186.748 15.446 186.748 72.384 C 186.748 117.336 107.075 165.298 101.007 207.969 C 86.591 179.973 33.638 164.6 33.638 103.747 C 33.638 51.96 83.991 41.08 93.326 77.913 Z" style="stroke-width: 0.996;" id="object-0"/></svg>