<?xml version="1.0" encoding="utf-8"?>
<svg xmlns="http://www.w3.org/2000/svg" viewBox="0 0 226.683 233.658" width="226.683px" height="233.659px" xmlns:bx="https://boxy-svg.com" preserveAspectRatio="none"><g id="LOGO_LAYER" transform="matrix(1.550435, 0, 0, 1.550435, -135.032486, -73.232185)"><path class="cls-3" d="M 212.499 95.61 C 217.236 69.465 176.467 45.349 166.849 70.773 L 167.31 154.995 C 183.487 142.859 205.033 115.293 212.499 95.61 Z" id="path-4" style="fill: rgb(239, 51, 64); stroke-width: 1;"/><path class="cls-2" d="M 133.979 82.35 C 131.919 74.344 103.182 78.923 98.909 111.078 C 96.479 129.365 105.374 149.817 133.364 168.647 L 133.979 82.35 Z" id="path-5" style="fill: rgb(11, 14, 14); stroke-width: 1;"/><path class="cls-1" d="M 150.006 90.849 C 150.006 90.849 139.224 80.564 133.066 81.812 L 133.066 168.262 C 139.276 173.222 150.98 182.987 152.71 186.487 C 155.19 179.117 157.866 166.212 167.926 155.532 L 167.926 71.312 C 157.396 77.032 150.006 90.849 150.006 90.849 Z" id="path2" style="fill: rgb(253, 218, 36); stroke-width: 1;"/></g><path class="cls-1" d="M 99.722 231.541 C 101.585 233.574 104.305 233.076 105.56 230.435 C 135.35 167.569 225.843 139.135 225.843 59.033 C 225.843 29.922 206.246 0.69 168.566 0.013 C 132.699 -0.635 100.509 22.469 97.152 59.87 C 96.145 36.188 80.613 25.269 62.7 25.269 C 27.461 25.269 -1.402 57.081 0.053 104.952 C 2.474 180.242 74.855 203.964 99.722 231.541 Z M 93.326 77.913 C 94.282 81.669 98.865 81.54 99.901 77.823 C 115.414 21.593 186.748 15.446 186.748 72.384 C 186.748 117.336 107.075 165.298 101.007 207.969 C 86.591 179.973 33.638 164.6 33.638 103.747 C 33.638 51.96 83.991 41.08 93.326 77.913 Z" style="stroke-width: 0.996;" id="object-0"/><defs/></svg>