<?xml version="1.0" encoding="utf-8"?>
<svg xmlns="http://www.w3.org/2000/svg" viewBox="0 0 226.683 233.658" width="226.683px" height="233.659px" xmlns:bx="https://boxy-svg.com" preserveAspectRatio="none"><g id="LOGO_LAYER" transform="matrix(1.6954, 0, 0, 1.6954, 169.286774, -18.560062)"><path class="cls-1" d="M -7.325 22.8 C -24.099 22.8 -42.484 48.89 -42.484 48.89 C -42.484 48.89 -51.322 35.656 -62.933 35.656 C -71.242 35.656 -86.504 45.002 -86.823 74.874 C -87.214 110.825 -45.507 125.662 -39.963 137.073 C -33.741 118.233 11.65 90.047 12.915 52.661 C 13.377 38.924 8.05 22.778 -7.315 22.778 L -7.325 22.8 Z" id="path2" style="fill: rgb(255, 0, 0); stroke-width: 1.048;"/><path class="cls-2" d="M -26.501 91.698 C -26.925 91.347 -27.469 91.407 -28.043 92.038 C -28.645 92.166 -29.493 92.315 -30.639 92.464 C -30.274 92.181 -29.762 91.764 -29.158 91.341 C -28.615 91.466 -28.043 91.191 -27.863 90.752 C -27.469 90.351 -27.015 90.386 -26.471 90.425 C -26.53 89.553 -27.2 89.531 -28.132 89.994 C -28.674 89.746 -29.522 90.142 -29.642 90.849 C -30.006 91.4 -30.729 91.778 -31.539 92.412 C -32.568 92.099 -33.869 91.809 -35.105 91.302 C -34.837 90.997 -34.561 90.639 -34.264 90.305 C -36.273 89.508 -37.807 88.623 -38.492 86.516 C -38.722 85.817 -38.313 85.937 -38.126 86.374 C -37.791 87.187 -37.264 87.7 -36.415 87.99 C -35.812 88.2 -35.47 87.485 -35.908 87.127 C -36.347 86.769 -36.757 86.132 -36.771 85.304 C -36.788 84.722 -36.124 84.722 -36.005 85.02 C -35.037 87.543 -33.854 89.211 -32.851 88.661 C -31.846 88.109 -32.321 87.575 -32.851 87.374 C -33.876 86.978 -34.458 85.504 -34.517 84.722 C -34.577 83.942 -34.093 83.912 -33.773 84.486 C -33.453 85.058 -32.568 86.116 -31.116 87.575 C -29.665 89.033 -27.656 89.189 -26.546 88.102 C -25.571 87.142 -26.509 86.711 -27.469 87.052 C -29.323 87.707 -31.235 85.996 -32.382 83.154 C -32.559 82.713 -32.217 82.61 -32.016 82.833 C -29.441 85.727 -27.29 85.78 -26.061 84.583 C -25.629 84.164 -25.14 82.914 -27.127 83.503 C -29.276 84.143 -30.566 82.654 -32.076 80.599 C -32.746 79.684 -32.135 79.594 -31.532 80.116 C -30.931 80.637 -30.021 81.225 -29.017 81.724 C -28.01 82.221 -25.98 81.924 -25.712 80.689 C -25.452 79.453 -26.352 79.588 -27.341 80.012 C -29.053 80.757 -30.318 79.698 -31.548 78.419 C -32.099 77.847 -31.867 77.443 -31.391 77.615 C -30.907 77.786 -29.762 78.21 -29.017 78.539 C -28.273 78.864 -26.642 78.976 -25.853 77.801 C -25.073 76.625 -26.299 76.112 -27.283 76.923 C -28.273 77.734 -30.683 77.34 -31.629 76.193 C -32.576 75.039 -31.509 75.174 -30.922 75.412 C -29.441 76.022 -27.603 75.91 -26.009 74.594 C -25.289 73.998 -25.398 73.627 -25.646 73.225 C -25.786 72.992 -26.27 72.986 -26.895 73.44 C -29.009 74.966 -30.698 74.869 -31.963 73.246 C -32.471 72.6 -31.846 72.488 -31.256 72.712 C -28.794 73.64 -26.263 72.627 -25.519 70.776 C -25.169 69.905 -25.966 69.048 -26.769 70.18 C -27.812 71.645 -29.486 71.855 -31.197 71.795 C -32.016 71.765 -32.024 70.724 -31.152 70.522 C -29.284 70.083 -26.324 68.544 -25.437 66.936 C -24.701 65.602 -26.182 64.293 -26.962 65.864 C -27.744 67.442 -29.397 68.579 -31.212 69.339 C -31.852 69.608 -32.076 69.615 -32.099 69.413 C -32.128 69.129 -32.335 68.654 -32.544 68.819 C -33.05 69.153 -34.858 69.973 -35.745 70.387 C -36.631 70.806 -37.032 71.653 -36.996 72.398 C -36.958 73.143 -36.75 74.43 -38.06 74.572 C -40.151 74.795 -39.28 71.313 -38.038 70.158 C -37.086 69.264 -36.042 68.774 -35.262 68.714 C -34.48 68.654 -33.543 68.229 -33.453 67.508 C -33.261 67.449 -32.902 67.321 -32.53 67.279 C -32.246 67.246 -31.711 66.9 -31.451 66.638 C -31.189 66.377 -30.878 65.975 -31.138 65.782 C -31.398 65.588 -31.815 66.005 -31.971 66.332 C -32.135 66.66 -32.477 66.92 -32.657 66.957 C -32.917 67.017 -33.364 67.135 -33.61 67.218 C -33.847 67.301 -34.241 67.285 -34.346 67.173 C -34.546 66.957 -34.323 66.793 -34.055 66.666 C -33.75 66.526 -33.431 66.526 -33.334 66.712 C -33.267 66.838 -33.148 66.949 -32.931 66.949 C -32.685 65.574 -33.997 65.773 -35.082 65.945 C -35.73 64.985 -37.397 65.864 -38.543 66.534 C -39.086 66.712 -40.01 66.748 -40.48 66.592 C -40.941 66.436 -40.918 66.683 -40.763 66.882 C -40.597 67.085 -40.016 67.426 -39.772 67.464 C -39.533 67.5 -39.608 67.627 -39.69 67.739 C -39.943 68.081 -40.515 68.454 -40.777 68.52 C -41.037 68.586 -41.12 68.714 -40.976 68.803 C -40.837 68.892 -40.634 68.989 -40.434 69.027 C -40.233 69.065 -40.256 69.146 -40.374 69.324 C -40.62 69.681 -41.282 70.083 -41.499 70.068 C -41.722 70.054 -41.738 70.173 -41.662 70.27 C -41.58 70.359 -41.282 70.471 -41.12 70.455 C -40.954 70.441 -40.948 70.471 -41.074 70.649 C -41.224 70.851 -41.55 71.288 -41.841 71.237 C -42.235 71.163 -42.332 71.274 -42.213 71.424 C -41.93 71.787 -41.946 71.96 -42.51 72.107 C -43.076 72.071 -43.091 71.907 -42.807 71.482 C -42.688 71.304 -42.786 71.213 -43.181 71.37 C -43.471 71.482 -43.798 71.117 -43.946 70.947 C -44.08 70.79 -44.065 70.761 -43.91 70.739 C -43.746 70.724 -43.448 70.554 -43.368 70.441 C -43.284 70.33 -43.306 70.21 -43.53 70.276 C -43.754 70.344 -44.409 70.077 -44.661 69.77 C -44.78 69.622 -44.802 69.54 -44.602 69.465 C -44.402 69.383 -44.201 69.243 -44.058 69.122 C -43.918 69.012 -43.999 68.892 -44.26 68.886 C -44.52 68.869 -45.094 68.625 -45.347 68.335 C -45.427 68.246 -45.508 68.133 -45.266 68.044 C -45.026 67.955 -44.437 67.494 -44.274 67.255 C -44.112 67.017 -44.096 66.77 -44.558 67.025 C -45.019 67.279 -45.949 67.433 -46.493 67.367 C -47.638 66.942 -49.312 66.414 -49.953 67.508 C -51.041 67.56 -52.349 67.642 -52.104 68.967 C -51.889 68.923 -51.768 68.789 -51.703 68.64 C -51.605 68.432 -51.284 68.364 -50.98 68.446 C -50.711 68.511 -50.497 68.633 -50.69 68.892 C -50.794 69.027 -51.181 69.122 -51.427 69.093 C -51.665 69.057 -52.119 69.034 -52.38 69.034 C -52.558 69.034 -52.9 68.848 -53.065 68.55 C -53.228 68.253 -53.638 67.924 -53.897 68.179 C -54.159 68.432 -53.845 68.765 -53.585 68.974 C -53.324 69.183 -52.789 69.413 -52.506 69.383 C -52.133 69.346 -51.768 69.398 -51.583 69.413 C -51.495 70.113 -50.556 70.337 -49.777 70.239 C -48.993 70.134 -47.951 70.411 -46.999 71.103 C -45.762 71.997 -44.885 75.293 -46.976 75.515 C -48.285 75.658 -48.086 74.325 -48.04 73.574 C -48.003 72.822 -48.405 72.055 -49.29 71.832 C -50.177 71.602 -51.985 71.17 -52.492 70.939 C -52.692 70.819 -52.907 71.342 -52.93 71.632 C -52.953 71.832 -53.176 71.877 -53.817 71.743 C -55.624 71.37 -57.277 70.573 -58.066 69.167 C -58.855 67.761 -60.328 69.383 -59.6 70.56 C -58.714 71.981 -55.759 72.897 -53.882 72.942 C -53.011 72.965 -53.019 74.006 -53.845 74.207 C -55.558 74.631 -57.232 74.773 -58.274 73.521 C -59.079 72.561 -59.874 73.582 -59.525 74.379 C -58.78 76.075 -56.25 76.558 -53.787 75.107 C -53.206 74.765 -52.58 74.742 -53.079 75.494 C -54.344 77.385 -56.035 77.831 -58.156 76.759 C -58.78 76.439 -59.264 76.551 -59.405 76.812 C -59.651 77.267 -59.762 77.661 -59.04 78.106 C -57.448 79.088 -55.609 78.815 -54.129 77.89 C -53.547 77.525 -52.476 77.167 -53.423 78.523 C -54.367 79.878 -56.785 80.778 -57.768 80.176 C -58.757 79.573 -59.987 80.347 -59.198 81.352 C -58.408 82.356 -56.778 81.902 -56.035 81.427 C -55.29 80.942 -54.143 80.279 -53.66 80.005 C -53.176 79.729 -52.953 80.087 -53.497 80.771 C -54.723 82.312 -55.989 83.629 -57.7 83.25 C -58.691 83.033 -59.592 83.086 -59.331 84.269 C -59.071 85.453 -57.039 85.318 -56.035 84.604 C -55.029 83.897 -54.121 83.115 -53.518 82.461 C -52.916 81.814 -52.306 81.768 -52.975 82.824 C -54.486 85.199 -55.773 86.964 -57.923 86.777 C -59.919 86.606 -59.421 87.752 -58.989 88.08 C -57.761 89.019 -55.609 88.51 -53.027 85.073 C -52.826 84.806 -52.492 84.843 -52.664 85.318 C -53.809 88.407 -55.722 90.52 -57.575 90.253 C -58.535 90.111 -59.48 90.752 -58.503 91.496 C -57.396 92.345 -55.386 91.771 -53.936 90.008 C -52.485 88.244 -51.598 87.002 -51.277 86.361 C -50.958 85.72 -50.474 85.653 -50.535 86.442 C -50.593 87.232 -51.172 88.831 -52.209 89.441 C -52.736 89.762 -53.214 90.395 -52.209 90.73 C -51.203 91.064 -50.013 89.143 -49.046 86.421 C -48.933 86.099 -48.263 85.952 -48.279 86.538 C -48.301 87.364 -48.703 88.095 -49.142 88.549 C -49.588 88.996 -49.239 89.636 -48.636 89.3 C -47.788 88.831 -47.26 88.206 -46.924 87.328 C -46.745 86.844 -46.335 86.643 -46.558 87.388 C -47.244 89.636 -48.77 90.849 -50.787 92.07 C -50.481 92.336 -50.214 92.642 -49.938 92.889 C -51.172 93.654 -52.476 94.211 -53.503 94.748 C -54.323 94.287 -55.043 94.063 -55.408 93.587 C -55.528 92.903 -56.376 92.694 -56.92 93.053 C -57.856 92.784 -58.52 92.946 -58.58 93.833 C -58.036 93.684 -57.582 93.543 -57.188 93.87 C -57.009 94.271 -56.435 94.428 -55.885 94.19 C -55.283 94.487 -54.769 94.801 -54.405 95.001 C -55.551 95.091 -56.399 95.121 -57.003 95.128 C -57.575 94.615 -58.118 94.675 -58.541 95.104 C -59.234 95.023 -59.778 95.412 -59.965 96.03 C -59.442 95.917 -58.958 95.679 -58.617 95.828 C -58.334 96.327 -57.552 96.259 -57.045 95.828 C -56.279 95.723 -54.791 95.553 -54.447 95.515 C -54.955 95.873 -55.558 96.295 -55.855 96.513 C -57.045 96.395 -57.686 96.929 -57.603 97.784 C -57.888 98.262 -57.865 98.879 -57.522 99.125 C -57.441 98.753 -57.238 98.268 -56.957 97.979 C -56.234 98.047 -55.705 97.749 -55.49 96.914 C -55.029 96.564 -54.425 96.118 -54.181 95.924 C -53.943 95.739 -53.75 95.53 -53.191 95.716 C -52.647 95.901 -52.141 96.051 -51.821 96.2 C -51.642 96.885 -50.958 96.856 -50.512 96.482 C -50.228 96.617 -49.992 96.869 -49.826 97.16 C -49.566 96.669 -49.709 96.059 -50.214 95.955 C -50.392 95.426 -51.041 95.314 -51.502 95.627 C -51.889 95.508 -52.43 95.299 -52.671 95.226 C -51.889 94.861 -49.894 93.9 -49.187 93.529 C -48.525 93.959 -47.779 94.369 -47.236 94.167 C -47.154 93.676 -46.909 93.253 -46.574 92.524 C -46.038 91.369 -45.377 90.268 -44.833 89.576 C -44.29 88.884 -43.739 89.189 -43.775 90.067 C -43.864 92.196 -45.427 95.523 -47.721 95.887 C -48.501 96.014 -48.816 96.207 -48.383 96.743 C -47.982 97.241 -46.731 97.182 -46.038 96.595 C -45.347 96.007 -45.1 96.014 -45.242 96.714 C -45.384 97.412 -46.165 97.756 -46.753 97.861 C -47.601 98.008 -48.56 98.418 -47.779 99.058 C -46.999 99.699 -45.703 99.162 -44.757 97.971 C -44.43 97.563 -44.169 97.419 -44.194 98.031 C -44.229 99.088 -44.855 99.817 -45.502 100.025 C -46.149 100.233 -46.791 100.472 -46.612 100.83 C -46.306 101.424 -45.302 101.417 -44.743 101.052 C -44.177 100.687 -43.575 100.063 -43.456 99.705 C -43.336 99.348 -43.091 99.52 -43.151 99.996 C -43.292 101.016 -43.999 101.075 -43.999 101.902 C -43.999 102.727 -43.313 103.464 -42.51 104.284 C -41.706 103.292 -41.022 102.407 -41.022 101.581 C -41.022 100.755 -41.729 100.852 -41.869 99.855 C -41.936 99.394 -41.693 99.169 -41.565 99.497 C -41.446 99.825 -40.845 100.33 -40.277 100.57 C -39.713 100.806 -38.707 100.605 -38.402 99.943 C -38.224 99.549 -38.863 99.444 -39.511 99.379 C -40.16 99.305 -40.783 98.709 -40.82 97.66 C -40.845 97.055 -40.583 97.138 -40.256 97.48 C -39.311 98.47 -38.022 98.738 -37.234 97.927 C -36.446 97.115 -37.413 96.914 -38.261 96.944 C -38.841 96.967 -39.629 96.789 -39.772 96.118 C -39.912 95.448 -39.667 95.388 -38.975 95.834 C -38.282 96.274 -37.032 96.073 -36.631 95.486 C -36.198 94.852 -36.512 94.726 -37.294 94.772 C -39.587 94.891 -41.148 91.891 -41.238 89.784 C -41.273 88.914 -40.724 88.49 -40.182 89.069 C -39.638 89.65 -38.975 90.602 -38.439 91.653 C -38.104 92.307 -37.852 92.679 -37.77 93.156 C -37.227 93.238 -36.481 92.679 -35.819 92.106 C -35.112 92.336 -33.125 92.873 -32.335 93.067 C -32.582 93.193 -33.117 93.513 -33.504 93.715 C -33.965 93.498 -34.614 93.751 -34.792 94.317 C -35.297 94.532 -35.44 95.172 -35.173 95.604 C -35.008 95.284 -34.77 94.98 -34.487 94.785 C -34.04 95.062 -33.357 94.95 -33.178 94.221 C -32.857 94.005 -32.351 93.751 -31.808 93.453 C -31.256 93.149 -31.063 93.311 -30.825 93.453 C -30.588 93.587 -29.977 93.907 -29.516 94.161 C -29.293 94.941 -28.772 95.128 -28.049 94.913 C -27.768 95.143 -27.565 95.591 -27.484 95.94 C -27.141 95.619 -27.118 94.994 -27.403 94.577 C -27.32 93.699 -27.967 93.304 -29.151 93.669 C -29.448 93.52 -30.059 93.222 -30.559 92.97 C -30.215 92.931 -28.727 92.798 -27.961 92.739 C -27.454 93.067 -26.672 92.964 -26.389 92.412 C -26.048 92.196 -25.564 92.322 -25.041 92.328 C -25.221 91.742 -25.763 91.481 -26.465 91.706 L -26.501 91.698 Z M -37.196 67.025 C -36.861 66.824 -36.488 66.728 -36.206 66.815 C -35.925 66.906 -35.864 67.18 -36.184 67.314 C -36.505 67.449 -36.929 67.494 -37.151 67.456 C -37.375 67.419 -37.471 67.189 -37.196 67.017 L -37.196 67.025 Z M -47.907 68.594 C -48.13 68.676 -48.554 68.722 -48.875 68.654 C -49.194 68.586 -49.136 68.296 -48.851 68.148 C -48.568 67.999 -48.197 68.014 -47.862 68.148 C -47.579 68.26 -47.684 68.511 -47.907 68.594 Z" id="path4" style="stroke-width: 0.745;"/></g><path class="cls-1" d="M 99.813 229.95 C 101.663 231.969 104.364 231.474 105.611 228.851 C 135.196 166.417 225.067 138.179 225.067 58.627 C 225.067 29.716 205.605 0.685 168.184 0.013 C 132.563 -0.631 100.594 22.315 97.26 59.458 C 96.26 35.939 80.835 25.095 63.045 25.095 C 28.048 25.095 -0.616 56.689 0.829 104.231 C 3.233 179.003 75.117 202.562 99.813 229.95 Z M 93.461 77.377 C 94.41 81.108 98.962 80.98 99.991 77.288 C 115.397 21.445 186.241 15.34 186.241 71.886 C 186.241 116.529 107.115 164.162 101.089 206.54 C 86.772 178.736 34.183 163.469 34.183 103.034 C 34.183 51.603 84.19 40.798 93.461 77.377 Z" style="stroke-width: 0.989;" id="object-0"/><defs/></svg>