<?xml version="1.0" encoding="utf-8"?>
<svg xmlns="http://www.w3.org/2000/svg" viewBox="0 0 226.683 233.658" width="226.683px" height="233.659px" xmlns:bx="https://boxy-svg.com" preserveAspectRatio="none"><defs/><g id="LOGO_LAYER" transform="matrix(1, 0, 0, 1, -75.034851, 9.803548)"><g id="LOGO_GROUP" transform="matrix(1, 0, 0, 1, -323.763306, -10.314432)"><path class="cls-2" d="M 494.813 69.437 C 477.107 29.657 410.963 55.457 415.838 106.311 C 412.825 155.048 455.08 185.925 499.745 217.221 C 501.282 218.074 566.12 141.74 581.573 112.529 C 611.915 51.328 590.393 30.429 562.191 28.263 C 512.995 24.484 494.813 69.437 494.813 69.437 Z" id="path-2" style="fill: rgb(0, 106, 167); stroke-width: 1.599;"/><path class="cls-1" d="M 585.821 95.795 L 565.627 126.204 L 495.825 133.52 L 495.825 212.697 C 491.891 217.814 477.018 198.368 467.551 190.819 L 467.551 136.495 L 424.069 141.068 C 418.498 142.401 413.378 114.186 417.561 113.467 L 467.535 108.204 L 467.535 52.233 C 476.426 56.599 490.943 66.051 495.809 74.045 L 495.825 105.231 L 585.821 95.795 Z" id="path-1" style="fill: rgb(255, 205, 0); stroke-width: 1.599;"/></g></g><path class="cls-1" d="M 99.722 231.541 C 101.585 233.574 104.305 233.076 105.56 230.435 C 135.35 167.569 225.843 139.135 225.843 59.033 C 225.843 29.922 206.246 0.69 168.566 0.013 C 132.699 -0.635 100.509 22.469 97.152 59.87 C 96.145 36.188 80.613 25.269 62.7 25.269 C 27.461 25.269 -1.402 57.081 0.053 104.952 C 2.474 180.242 74.855 203.964 99.722 231.541 Z M 93.326 77.913 C 94.282 81.669 98.865 81.54 99.901 77.823 C 115.414 21.593 186.748 15.446 186.748 72.384 C 186.748 117.336 107.075 165.298 101.007 207.969 C 86.591 179.973 33.638 164.6 33.638 103.747 C 33.638 51.96 83.991 41.08 93.326 77.913 Z" style="stroke-width: 0.996;" id="object-0"/></svg>