<?xml version="1.0" encoding="utf-8"?>
<svg xmlns="http://www.w3.org/2000/svg" viewBox="0 0 226.683 233.658" width="226.683px" height="233.659px" xmlns:bx="https://boxy-svg.com" preserveAspectRatio="none"><path d="M 1.787 67.626 C -13.635 43.914 36.942 -12.625 72.1 35.223 C 109.819 -39.57 195.825 27.56 164.245 65.723 L 1.787 67.626 Z" style="stroke-width: 56.963; fill: rgb(0, 181, 226);" transform="matrix(0.994606, -0.103721, 0, 1.005423, 23.808441, 38.133041)"/><path d="M 20.115 124.153 L -6.321 63.829 L 166.79 63.829 C 174.312 66.465 126.196 123.584 121.723 122.016 L 20.115 124.153 Z" style="stroke-width: 56.963; fill: rgb(239, 51, 64);" transform="matrix(0.994606, -0.103721, 0, 1.005423, 23.808441, 38.133041)" id="object-1"/><path d="M 78.725 182.394 L 16.05 120.486 L 140.861 120.486 L 78.725 182.394 Z" style="stroke-width: 56.963; fill: rgb(80, 158, 47);" transform="matrix(0.994606, -0.103721, 0, 1.005423, 23.808441, 38.133041)"/><path class="cls-1" d="M 99.722 231.541 C 101.585 233.574 104.305 233.076 105.56 230.435 C 135.35 167.569 225.843 139.135 225.843 59.033 C 225.843 29.922 206.246 0.69 168.566 0.013 C 132.699 -0.635 100.509 22.469 97.152 59.87 C 96.145 36.188 80.613 25.269 62.7 25.269 C 27.461 25.269 -1.402 57.081 0.053 104.952 C 2.474 180.242 74.855 203.964 99.722 231.541 Z M 93.326 77.913 C 94.282 81.669 98.865 81.54 99.901 77.823 C 115.414 21.593 186.748 15.446 186.748 72.384 C 186.748 117.336 107.075 165.298 101.007 207.969 C 86.591 179.973 33.638 164.6 33.638 103.747 C 33.638 51.96 83.991 41.08 93.326 77.913 Z" style="stroke-width: 0.996;" id="object-0"/><defs/><g id="svg-3" transform="matrix(1.55268, 0, 0, 1.55268, 466.321716, -33.769958)"><path d="M -243.07 118.001 C -237.65 117.432 -232.86 114.33 -229.82 110.007 C -232.31 112.636 -235.67 114.452 -239.38 114.842 C -247.03 115.646 -253.24 110.094 -253.24 102.443 C -253.24 94.791 -247.03 87.935 -239.38 87.131 C -235.67 86.742 -232.31 87.851 -229.82 89.958 C -232.86 86.274 -237.65 84.18 -243.07 84.748 C -252.25 85.714 -259.69 93.939 -259.69 103.122 C -259.69 112.305 -252.25 118.967 -243.07 118.001 Z" id="path4" style="stroke-width: 0.962; fill: rgb(255, 255, 255);"/><polygon points="-233.84 100.405 -228.86 101.65 -231.13 106.65 -226.37 103.886 -226.28 104.109 -224.6 108.67 -222.82 103.515 -218.06 105.277 -220.32 100.752 -215.36 98.463 -220.32 97.218 -218.06 92.215 -222.82 94.98 -224.6 90.197 -226.28 95.112 -226.37 95.352 -231.13 93.588 -228.86 98.114" id="polygon5" style="stroke-width: 0.962; fill: rgb(255, 255, 255);"/></g></svg>