<?xml version="1.0" encoding="utf-8"?>
<svg xmlns="http://www.w3.org/2000/svg" viewBox="0 0 226.683 233.658" width="226.683px" height="233.659px" xmlns:bx="https://boxy-svg.com" preserveAspectRatio="none"><defs/><g id="svg-1" transform="matrix(1, 0, 0, 1, 332.938934, -14.72604)" style=""><path class="cls-2" d="M -235.79 79.6 C -287.34 24.622 -355.13 134.708 -231.42 228.853 C -90.034 115.115 -139.65 -40.893 -235.79 79.6 Z" id="path6" style="fill: rgb(255, 255, 255);"/><path class="cls-1" d="M -202.73 177.876 L -216.88 199.685 L -259.75 204.226 L -259.76 204.211 C -267.73 201.203 -275.27 194.422 -279.35 185.991 L -202.73 177.876 Z" id="path-1" style="stroke-width: 1.582; fill: rgb(2, 53, 185);"/><path class="cls-1" d="M -311.29 79.694 L -243.33 72.5 L -235.69 83.166 L -230.14 71.103 L -144.02 61.984 L -140.16 81.869 L -311.29 99.987 L -311.29 79.694 Z" id="path-2" style="stroke-width: 1.582; fill: rgb(2, 53, 185);"/><g id="LOGO_LAYER" transform="matrix(1.010068, 0, 0, 1.010068, 312.55481, -29.396173)"><g id="LOGO_GROUP" transform="matrix(1, 0, 0, 1, -633.217407, -9.139151)"><g id="SELECT_FLAG_HERE"><g id="BLACK_FLAG"><path class="cls-2" d="M 65.341 191.822 L 82.586 189.958 L 91.209 204.343 L 99.832 188.109 L 117.077 186.244 L 108.454 171.859 L 117.077 155.624 L 99.832 157.488 L 91.209 143.103 L 82.586 159.337 L 65.341 161.202 L 73.964 175.587 L 65.341 191.822 Z M 72.541 186.785 L 76.369 179.585 L 80.196 185.959 L 72.541 186.785 Z M 91.223 195.82 L 87.396 189.446 L 95.05 188.621 L 91.223 195.82 Z M 109.905 182.758 L 102.25 183.584 L 106.078 176.384 L 109.905 182.758 Z M 109.905 160.661 L 106.078 167.861 L 102.25 161.487 L 109.905 160.661 Z M 91.223 151.626 L 95.05 158 L 87.396 158.825 L 91.223 151.626 Z M 84.991 163.35 L 97.441 162.013 L 103.659 172.4 L 97.441 184.124 L 84.991 185.462 L 78.774 175.074 L 84.991 163.35 Z M 72.541 164.688 L 80.196 163.862 L 76.369 171.062 L 72.541 164.688 Z" id="path9" style="fill: rgb(2, 53, 185); stroke-width: 1.423;"/></g></g></g></g></g><path class="cls-1" d="M 99.722 231.541 C 101.585 233.574 104.305 233.076 105.56 230.435 C 135.35 167.569 225.843 139.135 225.843 59.033 C 225.843 29.922 206.246 0.69 168.566 0.013 C 132.699 -0.635 100.509 22.469 97.152 59.87 C 96.145 36.188 80.613 25.269 62.7 25.269 C 27.461 25.269 -1.402 57.081 0.053 104.952 C 2.474 180.242 74.855 203.964 99.722 231.541 Z M 93.326 77.913 C 94.282 81.669 98.865 81.54 99.901 77.823 C 115.414 21.593 186.748 15.446 186.748 72.384 C 186.748 117.336 107.075 165.298 101.007 207.969 C 86.591 179.973 33.638 164.6 33.638 103.747 C 33.638 51.96 83.991 41.08 93.326 77.913 Z" style="stroke-width: 0.996;" id="object-0"/></svg>