<?xml version="1.0" encoding="utf-8"?>
<svg xmlns="http://www.w3.org/2000/svg" viewBox="0 0 226.683 233.658" width="226.683px" height="233.659px" xmlns:bx="https://boxy-svg.com" preserveAspectRatio="none"><defs/><g id="LOGO_LAYER" transform="matrix(1.473282, 0, 0, 1.473282, 72.997124, -117.922691)"><g id="LOGO_GROUP" transform="matrix(1, 0, 0, 1, -272.902924, -0.585343)"><g id="SELECT_FLAG_HERE"><g id="BLACK_FLAG"><path class="cls-2" d="M 278.868 119.799 C 253.825 100.106 240.723 149.557 244.285 162.869 C 250.683 186.781 261.427 196.923 289.026 218.853 C 302.857 203.307 377.287 140.082 349.586 108.312 C 323.919 78.875 296.768 114.364 290.6 130.303 L 288.901 130.47 L 278.868 119.799 Z" id="path3" style="fill: rgb(1, 33, 105);"/><path class="cls-1" d="M 302.06 175.95 L 302.06 203.63 C 293.525 222.846 288.885 232.888 278.56 210.86 L 278.56 178.4 L 260 190.48 C 254.093 192.037 237.881 156.566 245.54 154.03 L 251.03 153.45 L 245.72 151.11 C 242.714 149.401 245.921 135.266 249.24 135.46 L 278.55 148.37 L 278.55 118.8 C 281.223 116.944 286.441 128.383 287.342 129.717 C 288.539 131.49 289.655 131.067 290.881 129.106 C 294.037 124.06 299.535 108.04 302.06 110.68 L 302.06 145.89 L 340.51 120.87 C 340.511 120.87 340.512 120.87 340.513 120.871 L 349.836 114.804 L 353.029 129.947 L 329.59 145.2 L 349.918 143.031 C 353.375 145.336 321.022 184.726 317.73 182.85 L 302.06 175.95 Z" id="path7" style="fill: rgb(255, 255, 255);"/><path class="cls-3" d="M 303.31 147.96 L 352.047 116.24 L 353.27 121.183 L 313.82 146.86 L 303.31 147.96 Z M 266.8 151.81 L 256.29 152.91 L 246 148.38 C 244.425 147.875 245.023 142.555 246.91 143.04 L 266.8 151.8 L 266.8 151.81 Z M 266.81 177.46 L 277.33 176.35 L 258.39 188.67 C 256.528 187.991 255.934 186.458 255.35 184.9 L 266.8 177.45 L 266.81 177.46 Z M 337.589 164.992 L 297.36 169.09 L 297.36 211.86 C 293.44 216.45 294.326 222.344 293.076 226.064 C 292.076 224.054 286.08 214.15 283.26 211.72 L 283.26 170.57 L 249.06 174.16 C 247.945 174.534 243.021 161.189 245.54 159.14 L 283.26 155.18 L 283.26 122.51 C 290.366 126.069 290.843 122.793 297.36 118 L 297.36 153.71 L 336.409 149.608 C 336.415 149.603 336.421 149.598 336.427 149.593 L 346.446 148.541 L 337.589 164.992 Z M 324.33 171.41 L 326.51 172.37 C 327.794 173.526 324.203 177.055 323.12 176.61 L 313.82 172.51 L 324.33 171.41 Z" id="path-1" style="fill: rgb(200, 16, 46); stroke-width: 1;"/></g></g></g></g><path class="cls-1" d="M 99.722 231.541 C 101.585 233.574 104.305 233.076 105.56 230.435 C 135.35 167.569 225.843 139.135 225.843 59.033 C 225.843 29.922 206.246 0.69 168.566 0.013 C 132.699 -0.635 100.509 22.469 97.152 59.87 C 96.145 36.188 80.613 25.269 62.7 25.269 C 27.461 25.269 -1.402 57.081 0.053 104.952 C 2.474 180.242 74.855 203.964 99.722 231.541 Z M 93.326 77.913 C 94.282 81.669 98.865 81.54 99.901 77.823 C 115.414 21.593 186.748 15.446 186.748 72.384 C 186.748 117.336 107.075 165.298 101.007 207.969 C 86.591 179.973 33.638 164.6 33.638 103.747 C 33.638 51.96 83.991 41.08 93.326 77.913 Z" style="stroke-width: 0.996;" id="object-0"/></svg>