<?xml version="1.0" encoding="utf-8"?>
<svg xmlns="http://www.w3.org/2000/svg" viewBox="0 0 226.683 233.658" width="226.683px" height="233.659px" xmlns:bx="https://boxy-svg.com" preserveAspectRatio="none"><g id="LOGO_LAYER" transform="matrix(1.376482, 0, 0, 1.376482, 127.243164, -17.327271)"><path class="cls-3" d="M 43.807 94.484 C 59.488 19.568 -1.561 22.785 -22.131 63.866 C -37.818 35.715 -75.351 53.321 -71.386 106.093 L 43.807 94.484 Z" id="path-1" style="stroke-width: 1.14; fill: rgb(255, 255, 255);"/><path class="cls-1" d="M -70.438 103.521 C -78.841 105.299 -26.865 168.442 -18.384 169.073 C -18.384 169.073 51.71 94.337 45.858 91.479 L -70.438 103.521 Z" id="path2" style="stroke-width: 1.14; fill: rgb(215, 20, 26);"/><path class="cls-3" d="M -23.647 98.676 L -76.077 69.23 C -92.646 77.935 -83.051 122.688 -65.591 131.045 L -23.647 98.676 Z" id="path3" style="fill: rgb(17, 69, 126);"/></g><defs/><path class="cls-1" d="M 99.722 231.541 C 101.585 233.574 104.305 233.076 105.56 230.435 C 135.35 167.569 225.843 139.135 225.843 59.033 C 225.843 29.922 206.246 0.69 168.566 0.013 C 132.699 -0.635 100.509 22.469 97.152 59.87 C 96.145 36.188 80.613 25.269 62.7 25.269 C 27.461 25.269 -1.402 57.081 0.053 104.952 C 2.474 180.242 74.855 203.964 99.722 231.541 Z M 93.326 77.913 C 94.282 81.669 98.865 81.54 99.901 77.823 C 115.414 21.593 186.748 15.446 186.748 72.384 C 186.748 117.336 107.075 165.298 101.007 207.969 C 86.591 179.973 33.638 164.6 33.638 103.747 C 33.638 51.96 83.991 41.08 93.326 77.913 Z" style="stroke-width: 0.996;" id="object-0"/></svg>