<?xml version="1.0" encoding="utf-8"?>
<svg xmlns="http://www.w3.org/2000/svg" viewBox="0 0 226.683 233.658" width="226.683px" height="233.659px" xmlns:bx="https://boxy-svg.com" preserveAspectRatio="none"><defs/><g id="svg-1" transform="matrix(1.464378, 0, 0, 1.464378, 106.43248, -129.209869)"><path class="cls-2" d="M -4.721 235.438 C -5.01 235.583 -54.852 189.985 -53.866 167.222 C -58.061 149.755 -36.615 124.159 -29.98 123.641 C -20.258 122.882 -6.448 135.355 -7.021 138.294 C 22.107 86.247 70.459 103.138 57.484 148.28 C 51.969 175.754 -3.603 235.717 -4.721 235.438 Z" id="path4" style="fill: rgb(198, 12, 48);"/><path class="cls-1" d="M -8.364 139.732 L -8.364 162.652 L 52.808 156.234 L 42.609 172.614 L -8.374 177.962 L -8.374 225.232 C -11.024 221.482 -17.004 217.142 -23.684 211.712 L -23.684 179.572 L -47.414 182.062 C -50.574 180.284 -53.149 172.592 -51.174 167.152 L -23.684 164.262 L -23.684 123.722 C -13.658 122.758 -9.16 138.456 -8.374 139.732 L -8.364 139.732 Z" id="path5" style="fill: rgb(255, 255, 255);"/></g><path class="cls-1" d="M 99.722 231.541 C 101.585 233.574 104.305 233.076 105.56 230.435 C 135.35 167.569 225.843 139.135 225.843 59.033 C 225.843 29.922 206.246 0.69 168.566 0.013 C 132.699 -0.635 100.509 22.469 97.152 59.87 C 96.145 36.188 80.613 25.269 62.7 25.269 C 27.461 25.269 -1.402 57.081 0.053 104.952 C 2.474 180.242 74.855 203.964 99.722 231.541 Z M 93.326 77.913 C 94.282 81.669 98.865 81.54 99.901 77.823 C 115.414 21.593 186.748 15.446 186.748 72.384 C 186.748 117.336 107.075 165.298 101.007 207.969 C 86.591 179.973 33.638 164.6 33.638 103.747 C 33.638 51.96 83.991 41.08 93.326 77.913 Z" style="stroke-width: 0.996;" id="object-0"/></svg>