<?xml version="1.0" encoding="utf-8"?>
<svg xmlns="http://www.w3.org/2000/svg" viewBox="0 0 226.683 233.658" width="226.683px" height="233.659px" xmlns:bx="https://boxy-svg.com" preserveAspectRatio="none"><g id="svg-3" transform="matrix(1.643976, 0, 0, 1.643976, 196.599884, 73.036903)"><g id="LOGO_GROUP" transform="matrix(1, 0, 0, 1, -349.10022, -131.048889)"><g id="SELECT_FLAG_HERE"><g id="BLACK_FLAG"><path class="cls-2" d="M 292.412 217.013 C 418.82 67.14 288.116 95.67 289.802 131.951 C 261.013 87.263 196.726 140.374 292.412 217.013 Z" id="path-1" style="fill: rgb(0, 0, 139);"/><path class="cls-1" d="M 262.45 120.49 C 262.579 118.598 269.82 119.02 270.33 119.06 L 270.33 127.83 L 278.52 121.76 C 279.259 121.513 283.127 123.785 282.53 125.49 L 279.52 127.72 L 283.74 127.28 C 285.366 127.731 289.346 134.976 289.96 135.38 L 289.96 136.63 L 279.51 137.73 L 289.96 143.28 L 289.96 146.64 L 284.69 147.19 L 270.31 139.55 L 270.31 148.69 L 262.46 149.52 L 262.46 140.38 L 248.08 151.03 L 245.207 151.266 C 245.207 151.266 245.892 146.715 246.42 145.55 L 253.25 140.49 L 247.38 141.11 C 246.117 139.468 250.317 130.773 251.63 130.66 L 253.24 130.49 L 252.11 129.89 C 251.752 129.247 253.74 124.884 255.86 125.17 L 262.45 128.67 L 262.45 120.49 Z" id="path12" style="fill: rgb(255, 255, 255);"/><polygon class="cls-1" points="266.43,167.89 265.06,163.77 263.68,168.18 259.49,167.03 261.97,170.51 258.11,173.2 262.58,173.12 261.97,177.63 265.06,174.05 268.15,176.98 267.53,172.6 272,171.74 268.14,169.86 270.62,165.86 " id="polygon14" style="fill: rgb(255, 255, 255);"/><polygon class="cls-1" points="321.47,162.46 320.82,160.5 320.16,162.6 318.17,162.05 319.35,163.71 317.51,164.99 319.64,164.95 319.35,167.1 320.82,165.4 322.29,166.79 322,164.7 324.12,164.3 322.29,163.4 323.47,161.5 " id="polygon15" style="fill: rgb(255, 255, 255);"/><polygon class="cls-1" points="309.6,144.91 308.95,142.95 308.29,145.05 306.3,144.51 307.48,146.16 305.64,147.44 307.77,147.4 307.48,149.55 308.95,147.85 310.42,149.24 310.13,147.16 312.25,146.75 310.42,145.85 311.6,143.95 " id="polygon16" style="fill: rgb(255, 255, 255);"/><polygon class="cls-1" points="320.82,133.74 322.29,135.13 322,133.05 324.12,132.64 322.29,131.74 323.47,129.84 321.47,130.81 320.82,128.84 320.16,130.94 318.17,130.4 319.35,132.05 317.51,133.34 319.64,133.3 319.35,135.44 " id="polygon17" style="fill: rgb(255, 255, 255);"/><polygon class="cls-1" points="332.02,139.39 331.37,137.43 330.72,139.53 328.72,138.98 329.9,140.64 328.06,141.92 330.19,141.88 329.9,144.03 331.37,142.33 332.84,143.72 332.55,141.63 334.68,141.23 332.84,140.33 334.02,138.43 " id="polygon18" style="fill: rgb(255, 255, 255);"/><polygon class="cls-1" points="325.05,148.88 323.68,149.13 324.73,149.9 324.4,151.26 325.57,150.42 326.73,151.02 326.4,149.72 327.45,148.73 326.08,148.77 325.57,147.56 " id="polygon19" style="fill: rgb(255, 255, 255);"/><path class="cls-3" d="M 262.04 139.56 L 258.53 139.93 L 245.91 149.28 C 245.383 149.28 245.193 151.27 245.72 151.27 L 246.33 151.21 L 262.05 139.56 L 262.04 139.56 Z" id="path7" style="fill: rgb(255, 0, 0);"/><path class="cls-3" d="M 258.52 129.93 L 253.85 127.45 C 252.876 127.745 252.42 128.254 252.67 129.06 L 255.01 130.3 L 258.53 129.93 L 258.52 129.93 Z" id="path8" style="fill: rgb(255, 0, 0);"/><path class="cls-3" d="m 274.24,128.28 6.46,-4.79 c -0.44,-0.41 -0.91,-0.81 -1.42,-1.18 l -8.55,6.34 z" id="path9" style="fill: rgb(255, 0, 0);"/><polygon class="cls-3" points="289.96,146.63 289.96,144.39 277.76,137.91 274.24,138.28 289.96,146.63 " id="polygon9" style="fill: rgb(255, 0, 0);"/><path class="cls-3" d="M 264.02 149.35 L 268.73 148.86 L 268.73 136.86 L 287.37 134.9 C 286.898 133.962 285.781 129.742 284.69 129.18 L 268.73 130.85 L 268.73 117.99 C 268.73 117.99 265.7 117.62 264.01 118.85 L 264.01 131.34 L 250.46 132.76 C 248.713 133.283 247.189 137.552 247.95 139.02 L 264.01 137.33 L 264.01 149.33 L 264.02 149.35 Z" id="path14" style="fill: rgb(255, 0, 0);"/></g></g></g></g><path class="cls-1" d="M 99.722 231.541 C 101.585 233.574 104.305 233.076 105.56 230.435 C 135.35 167.569 225.843 139.135 225.843 59.033 C 225.843 29.922 206.246 0.69 168.566 0.013 C 132.699 -0.635 100.509 22.469 97.152 59.87 C 96.145 36.188 80.613 25.269 62.7 25.269 C 27.461 25.269 -1.402 57.081 0.053 104.952 C 2.474 180.242 74.855 203.964 99.722 231.541 Z M 93.326 77.913 C 94.282 81.669 98.865 81.54 99.901 77.823 C 115.414 21.593 186.748 15.446 186.748 72.384 C 186.748 117.336 107.075 165.298 101.007 207.969 C 86.591 179.973 33.638 164.6 33.638 103.747 C 33.638 51.96 83.991 41.08 93.326 77.913 Z" style="stroke-width: 0.996;" id="object-0"/><defs/></svg>