<?xml version="1.0" encoding="utf-8"?>
<svg xmlns="http://www.w3.org/2000/svg" viewBox="0 0 226.683 233.658" width="226.683px" height="233.659px" xmlns:bx="https://boxy-svg.com" preserveAspectRatio="none"><defs/><g id="LOGO_LAYER"><path class="cls-1" d="M 101.921 216.034 C 92.132 221.984 17.348 139.023 22.434 105.844 C 36.193 16.102 96.7 62.552 92.726 67.63 C 92.726 61.099 137.146 22.667 157.046 25.628 C 209.751 33.469 189.255 104.548 170.68 129.357 C 153.567 153.197 101.921 216.034 101.921 216.034 Z" id="path3" style="stroke-width: 1.495; fill: rgb(255, 255, 255);"/><path class="cls-2" d="M 99.791 98.976 L 187.721 89.727 L 165.766 126.061 L 99.777 132.994 L 99.777 209.52 C 85.023 196.25 65.775 177.838 65.775 177.838 L 65.775 136.58 L 35.091 139.809 C 28.098 140.139 23.2 107.763 27.722 106.584 L 65.775 102.578 L 65.775 51.612 C 71.746 46.927 88.639 63.452 99.777 64.121 L 99.791 98.976 Z" id="path5" style="fill: rgb(0, 53, 128); stroke-width: 1.495;"/></g><path class="cls-1" d="M 99.722 231.541 C 101.585 233.574 104.305 233.076 105.56 230.435 C 135.35 167.569 225.843 139.135 225.843 59.033 C 225.843 29.922 206.246 0.69 168.566 0.013 C 132.699 -0.635 100.509 22.469 97.152 59.87 C 96.145 36.188 80.613 25.269 62.7 25.269 C 27.461 25.269 -1.402 57.081 0.053 104.952 C 2.474 180.242 74.855 203.964 99.722 231.541 Z M 93.326 77.913 C 94.282 81.669 98.865 81.54 99.901 77.823 C 115.414 21.593 186.748 15.446 186.748 72.384 C 186.748 117.336 107.075 165.298 101.007 207.969 C 86.591 179.973 33.638 164.6 33.638 103.747 C 33.638 51.96 83.991 41.08 93.326 77.913 Z" style="stroke-width: 0.996;" id="object-0"/></svg>