<?xml version="1.0" encoding="utf-8"?>
<svg xmlns="http://www.w3.org/2000/svg" viewBox="0 0 226.683 233.658" width="226.683px" height="233.659px" xmlns:bx="https://boxy-svg.com" preserveAspectRatio="none"><defs/><g id="svg-1" transform="matrix(1, 0, 0, 1, 332.938934, -14.72604)" style=""><path class="cls-2" d="M -235.79 79.6 C -287.34 24.622 -355.13 134.708 -231.42 228.853 C -90.034 115.115 -139.65 -40.893 -235.79 79.6 Z" id="path6" style="fill: rgb(13, 94, 175);"/><path class="cls-1" d="M -202.964 179.138 L -216.97 198.731 L -259.41 203.226 L -259.42 203.211 C -267.31 200.233 -274.78 195.52 -278.81 187.173 L -202.964 179.138 Z" id="path-1" style="stroke-width: 1.566; fill: rgb(255, 255, 255);"/><path class="cls-1" d="M -142.992 100.387 L -150.646 119.303 L -233.44 128.081 L -233.44 109.978 L -142.992 100.387 Z M -233.46 128.083 L -233.44 128.081 L -233.44 128.083 L -233.46 128.083 Z" id="path-2" style="stroke-width: 1.566; fill: rgb(255, 255, 255);"/><path class="cls-1" d="M -144.826 64.402 L -141.005 82.089 L -233.46 91.89 L -233.46 73.8 L -144.826 64.402 Z" id="path-3" style="stroke-width: 1.566; fill: rgb(255, 255, 255);"/><path class="cls-1" d="M -302.22 117.313 L -302.98 99.296 L -276.48 96.474 L -276.48 70.468 C -276.48 70.468 -260.49 64.18 -258.57 64.572 L -258.57 94.562 L -233.44 91.893 L -233.44 109.981 L -258.57 112.652 L -258.57 148.845 L -258.56 148.848 L -222.7 145.017 L -222.72 145.035 L -156.34 137.944 L -173.93 157.917 L -292.65 170.579 L -300.95 153.376 L -276.48 150.762 L -276.48 114.579 L -302.22 117.313 Z" id="path-6" style="stroke-width: 1.566; fill: rgb(255, 255, 255);"/></g><path class="cls-1" d="M 99.722 231.541 C 101.585 233.574 104.305 233.076 105.56 230.435 C 135.35 167.569 225.843 139.135 225.843 59.033 C 225.843 29.922 206.246 0.69 168.566 0.013 C 132.699 -0.635 100.509 22.469 97.152 59.87 C 96.145 36.188 80.613 25.269 62.7 25.269 C 27.461 25.269 -1.402 57.081 0.053 104.952 C 2.474 180.242 74.855 203.964 99.722 231.541 Z M 93.326 77.913 C 94.282 81.669 98.865 81.54 99.901 77.823 C 115.414 21.593 186.748 15.446 186.748 72.384 C 186.748 117.336 107.075 165.298 101.007 207.969 C 86.591 179.973 33.638 164.6 33.638 103.747 C 33.638 51.96 83.991 41.08 93.326 77.913 Z" style="stroke-width: 0.996;" id="object-0"/></svg>