<?xml version="1.0" encoding="utf-8"?>
<svg xmlns="http://www.w3.org/2000/svg" viewBox="0 0 226.683 233.658" width="226.683px" height="233.659px" xmlns:bx="https://boxy-svg.com" preserveAspectRatio="none"><defs><circle id="rb" r="145.663293" fill="none" stroke="#013ba6" stroke-width="39.030362"/><circle id="rw" r="145.663293" fill="none" stroke="#fff" stroke-width="17.346827"/></defs><path class="cls-1" d="M 192.191 53.734 C 151.203 1.507 97.962 53.909 97.701 65.837 C 97.648 68.24 95.977 67.896 95.452 66.112 C 86.894 37.039 -5.627 55.913 30.813 134.183 C 33.195 139.298 36.871 150.096 39.846 153.986 C 98.902 231.183 104.172 224.749 134.821 175.793 C 144.744 159.941 211.05 77.765 192.191 53.734 Z" id="path-2" style="fill: rgb(255, 255, 255);"/><g id="LOGO_LAYER" transform="matrix(1.110017, 0, 0, 1.110017, 134.769058, -14.230785)" style=""><g id="LOGO_GROUP" transform="matrix(1, 0, 0, 1, -326.71875, -37.810585)"><g id="SELECT_FLAG_HERE"><g id="BLACK_FLAG"><path class="cls-3" d="m 270.53,180.2 c -0.1,0.01 -0.2,0.04 -0.3,0.07 v 0 c -0.02,0.16 0,0.32 0.07,0.46 0.06,0.14 0.27,0.45 0.88,0.38 v 0 c 0.23,-0.02 0.38,-0.09 0.45,-0.2 0.08,-0.14 -0.02,-0.29 -0.05,-0.34 -0.24,-0.29 -0.62,-0.43 -1.02,-0.38 h -0.02 z" id="path2" style="fill: rgb(78, 91, 49);"/><path class="cls-3" d="m 271.11,178.27 c 0,0 -0.03,0 -0.04,0 -0.05,0 -0.11,0.02 -0.16,0.04 v 0 c 0.1,1.18 0.96,1.85 1.67,2.21 0.47,0.24 0.98,0.41 1.51,0.5 -0.55,-1.17 -1.16,-1.99 -1.82,-2.42 -0.52,-0.34 -0.95,-0.35 -1.16,-0.33 z" id="path3" style="fill: rgb(78, 91, 49);"/><polygon class="cls-3" points="" id="polygon3" style="fill: rgb(78, 91, 49);"/><path class="cls-3" d="m 275.91,180.76 v 0 c 0,0 0,0 0,0 -0.45,-1.39 -0.98,-2.38 -1.57,-2.96 -0.52,-0.5 -0.98,-0.58 -1.29,-0.56 -0.02,0 -0.04,0 -0.06,0 -0.01,0 -0.03,0 -0.04,0 -0.13,0.02 -0.25,0.06 -0.37,0.13 0.46,1.09 1.19,2.03 2.12,2.73 0.36,0.28 0.76,0.49 1.2,0.64 v 0 z" id="path4" style="fill: rgb(78, 91, 49);"/><path class="cls-3" d="m 271.58,181.45 c 0,0 -0.06,0 -0.09,0.01 -0.45,0.05 -0.89,0.15 -1.33,0.31 v 0 c 0,0 0,0.09 0,0.14 0.02,0.11 0.06,0.22 0.13,0.31 0.15,0.22 0.51,0.5 1.35,0.62 0.5,0.07 1,0.08 1.51,0.02 v 0 c 0.52,-0.05 1.03,-0.17 1.53,-0.34 v 0 c -0.5,-0.61 -1.22,-0.99 -2.03,-1.07 -0.36,-0.03 -0.72,-0.03 -1.08,0 z" id="path5" style="fill: rgb(78, 91, 49);"/><polygon class="cls-3" points="" id="polygon5" style="fill: rgb(78, 91, 49);"/><path class="cls-3" d="m 270.62,174.47 v 0 c 0,0 0.05,0.35 0.09,0.72 0.04,0.29 0.1,0.83 0.1,1.08 0,0.25 0.18,0.57 0.38,0.86 0.19,0.27 0.38,0.49 0.38,0.49 v 0 c 0,0 0,0 0,0 v 0 c 0,0 0.09,-0.98 0.09,-1.92 0,-0.94 -1.01,-1.22 -1.05,-1.23 z" id="path6" style="fill: rgb(78, 91, 49);"/><path class="cls-3" d="m 270.32,177.65 c 0,0 0.04,-0.04 0.05,-0.06 0.02,-0.08 0.02,-0.15 0,-0.23 -0.06,-0.25 -0.14,-0.48 -0.26,-0.7 -0.22,-0.48 -0.51,-0.97 -0.55,-1.03 v 0 c -0.29,-0.33 -0.59,-0.63 -0.91,-0.92 -0.25,-0.23 -0.53,-0.43 -0.82,-0.61 -0.32,-0.19 -0.56,-0.26 -0.78,-0.24 -0.06,0 -0.11,0.02 -0.17,0.04 -0.03,0.3 -0.03,0.61 -0.01,0.91 0.05,0.66 0.21,1.14 0.49,1.43 0.31,0.32 0.83,0.66 1.47,0.96 0.58,0.27 1.1,0.44 1.4,0.46 0.01,0 0.02,0 0.03,0 v 0 c 0,0 0.04,0 0.06,-0.02 z" id="path7" style="fill: rgb(78, 91, 49);"/><path class="cls-3" d="m 270.42,179.47 v 0 c -0.03,-0.33 -0.18,-0.62 -0.41,-0.83 -0.37,-0.36 -1.16,-0.77 -2.85,-0.65 v 0 c 0.04,0.27 0.12,0.53 0.23,0.77 0.16,0.35 0.47,0.78 1.01,0.82 0.47,0.03 0.94,0.02 1.41,-0.03 v 0 c 0.36,-0.04 0.6,-0.09 0.6,-0.09 z" id="path8" style="fill: rgb(78, 91, 49);"/><path class="cls-3" d="m 280.73,185.25 h -0.01 c -0.07,0.01 -0.14,0.03 -0.2,0.07 -0.01,0.18 0,0.36 0.04,0.53 0.03,0.13 0.09,0.25 0.18,0.35 0.1,0.1 0.25,0.15 0.4,0.13 v 0 c 0.12,0 0.24,-0.09 0.3,-0.21 0.04,-0.13 0.02,-0.27 -0.03,-0.38 -0.11,-0.26 -0.36,-0.51 -0.68,-0.48 z" id="path9" style="fill: rgb(78, 91, 49);"/><path class="cls-3" d="m 284.13,185.33 h -0.01 c -0.72,0.08 -1.16,0.34 -1.41,0.55 -0.15,0.12 -0.27,0.27 -0.36,0.43 v 0 c 0,0 0,0 0,0 0.76,0.37 1.63,0.53 2.52,0.44 0.83,-0.08 1.64,-0.39 2.35,-0.89 -1.2,-0.44 -2.24,-0.62 -3.09,-0.53 z" id="path10" style="fill: rgb(78, 91, 49);"/><path class="cls-3" d="m 287.69,184.87 v 0 c 0,0 0,0 0,0 -1.44,-2.57 -2.94,-2.71 -3.52,-2.65 -0.11,0.01 -0.23,0.04 -0.34,0.07 v 0 c -0.03,0.45 0.08,0.88 0.33,1.23 0.39,0.57 1.33,1.27 3.52,1.35 z" id="path11" style="fill: rgb(78, 91, 49);"/><path class="cls-3" d="m 275.57,181.4 h -0.05 c -0.17,0.02 -0.33,0.06 -0.49,0.13 v 0 c 0.03,0.11 0.07,0.2 0.11,0.3 0.13,0.25 0.32,0.46 0.54,0.63 0.52,0.41 1.55,0.87 3.54,0.73 v 0 c -1.61,-1.72 -2.98,-1.86 -3.65,-1.79 z" id="path12" style="fill: rgb(78, 91, 49);"/><path class="cls-3" d="m 282.84,182.96 v 0 c 0.12,0 0.24,-0.09 0.3,-0.21 0.04,-0.13 0.02,-0.27 -0.03,-0.38 -0.11,-0.26 -0.36,-0.51 -0.68,-0.48 h -0.01 c -0.07,0.01 -0.14,0.03 -0.2,0.07 -0.01,0.18 0,0.36 0.04,0.53 0.03,0.13 0.09,0.25 0.18,0.35 0.1,0.1 0.25,0.15 0.4,0.13 z" id="path13" style="fill: rgb(78, 91, 49);"/><path class="cls-3" d="m 279.7,184.22 c -0.47,-0.31 -1.18,-0.41 -2.11,-0.31 -0.06,0 -0.12,0.01 -0.19,0.02 -0.66,0.09 -1.32,0.25 -1.97,0.47 v 0 c 0,0 0,0 0,0 0.85,0.76 2.21,0.92 3.2,0.81 v 0 c 0,0 0.08,0 0.08,0 0.54,-0.07 0.92,-0.19 1.13,-0.37 0.09,-0.07 0.14,-0.18 0.13,-0.29 -0.05,-0.14 -0.14,-0.26 -0.28,-0.32 z" id="path14" style="fill: rgb(78, 91, 49);"/><path class="cls-3" d="m 281.06,184.65 c 0.47,0.27 1.19,0.36 2.12,0.26 v 0 c 0.49,-0.06 0.98,-0.14 1.46,-0.26 v 0 c 0,0 0,0 0,0 -1.16,-1.01 -2.27,-1.13 -2.99,-1.05 -0.05,0 -0.1,0.01 -0.15,0.02 -0.34,0.05 -0.67,0.15 -0.98,0.31 0.01,0.09 0.04,0.17 0.08,0.25 0.11,0.2 0.27,0.37 0.47,0.47 z" id="path15" style="fill: rgb(78, 91, 49);"/><path class="cls-3" d="m 276.88,181.11 v 0 c 0.12,0 0.24,-0.09 0.29,-0.2 0.04,-0.13 0.03,-0.27 -0.03,-0.38 -0.11,-0.26 -0.36,-0.51 -0.68,-0.48 h -0.01 c -0.07,0.01 -0.14,0.03 -0.2,0.07 -0.01,0.18 0,0.36 0.04,0.53 0.03,0.13 0.09,0.25 0.18,0.35 0.1,0.1 0.25,0.14 0.4,0.12 z" id="path16" style="fill: rgb(78, 91, 49);"/><path class="cls-3" d="m 281.39,182.76 v 0 c -0.75,-2.17 -2.21,-2.38 -3.02,-2.31 -0.02,0 -0.05,0 -0.07,0 -0.02,0 -0.04,0 -0.07,0 -0.17,0.02 -0.33,0.06 -0.49,0.11 0.14,0.4 0.36,0.75 0.66,1.04 0.48,0.48 1.39,1.08 2.99,1.15 v 0 z" id="path17" style="fill: rgb(78, 91, 49);"/><path class="cls-3" d="m 275.65,183.72 c 0.03,-0.11 0.02,-0.23 -0.02,-0.33 -0.04,-0.12 -0.12,-0.23 -0.21,-0.31 -0.09,-0.08 -0.2,-0.12 -0.33,-0.11 -0.05,0 -0.11,0.02 -0.15,0.05 v 0 c 0,0.16 0,0.31 0.04,0.46 0.02,0.11 0.07,0.22 0.14,0.3 0.08,0.09 0.19,0.13 0.31,0.11 v 0 c 0.1,-0.01 0.19,-0.08 0.23,-0.18 z" id="path18" style="fill: rgb(78, 91, 49);"/><path class="cls-3" d="m 299.18,183.31 c -0.32,0.03 -0.57,0.34 -0.68,0.62 -0.06,0.13 -0.07,0.27 -0.03,0.39 0.05,0.11 0.17,0.16 0.3,0.14 v 0 c 0.15,-0.01 0.3,-0.09 0.4,-0.21 0.09,-0.11 0.15,-0.25 0.18,-0.38 0.04,-0.18 0.06,-0.36 0.04,-0.54 -0.06,-0.02 -0.13,-0.03 -0.2,-0.02 z" id="path19" style="fill: rgb(78, 91, 49);"/><polygon class="cls-3" points="305.83,177.68 305.83,177.69 305.83,177.68 " id="polygon19" style="fill: rgb(78, 91, 49);"/><path class="cls-3" d="m 295.8,184.1 h -0.01 c -0.85,0.09 -1.89,0.49 -3.09,1.18 0.71,0.35 1.52,0.48 2.35,0.39 0.89,-0.1 1.76,-0.44 2.52,-0.97 v 0 c -0.09,-0.15 -0.22,-0.27 -0.36,-0.36 -0.25,-0.15 -0.69,-0.32 -1.41,-0.25 z" id="path20" style="fill: rgb(78, 91, 49);"/><path class="cls-3" d="m 295.75,182.3 c 0.25,-0.4 0.37,-0.85 0.33,-1.3 v 0 c 0,0 0,0 0,0 -0.11,-0.01 -0.22,-0.01 -0.34,0 -0.58,0.06 -2.08,0.51 -3.52,3.39 v 0 c 0,0 0,0 0,0 2.2,-0.54 3.13,-1.44 3.52,-2.09 z" id="path21" style="fill: rgb(78, 91, 49);"/><path class="cls-3" d="m 308.24,171.86 c 0,0.95 0.09,1.89 0.09,1.9 v 0 c 0,0 0,0 0,0 v 0 c 0,0 0.19,-0.26 0.38,-0.58 0.2,-0.33 0.38,-0.67 0.38,-0.94 0,-0.27 0.06,-0.8 0.1,-1.1 0.05,-0.38 0.09,-0.71 0.09,-0.74 v 0 c 0,0 -1.05,0.51 -1.05,1.45 z" id="path22" style="fill: rgb(78, 91, 49);"/><path class="cls-3" d="m 305.83,177.68 c 0.53,-0.21 1.04,-0.48 1.51,-0.82 0.7,-0.51 1.56,-1.36 1.67,-2.56 v 0 c -0.05,0 -0.11,0 -0.16,0 -0.01,0 -0.03,0 -0.04,0 -0.21,0.02 -0.64,0.13 -1.16,0.58 -0.66,0.57 -1.27,1.52 -1.82,2.8 z" id="path23" style="fill: rgb(78, 91, 49);"/><path class="cls-3" d="m 309.89,174.45 c -0.23,0.26 -0.37,0.59 -0.41,0.92 v 0 c 0,0 0.24,0 0.6,-0.04 v 0 c 0.47,-0.05 0.94,-0.14 1.41,-0.27 0.54,-0.16 0.85,-0.65 1.01,-1.04 0.11,-0.26 0.19,-0.54 0.23,-0.82 v 0 c -1.68,0.23 -2.48,0.8 -2.85,1.24 z" id="path24" style="fill: rgb(78, 91, 49);"/><path class="cls-3" d="m 312.87,169.05 c -0.22,0.03 -0.46,0.15 -0.78,0.41 -0.29,0.24 -0.57,0.5 -0.82,0.78 -0.32,0.35 -0.63,0.72 -0.91,1.11 v 0 c -0.03,0.07 -0.32,0.62 -0.55,1.15 -0.11,0.24 -0.2,0.5 -0.26,0.75 -0.02,0.08 -0.02,0.15 0,0.23 0,0.02 0.03,0.04 0.05,0.05 0.02,0 0.04,0 0.06,0 v 0 c 0,0 0.02,0 0.03,0 0.3,-0.08 0.82,-0.36 1.4,-0.76 0.64,-0.44 1.17,-0.89 1.47,-1.27 0.28,-0.35 0.44,-0.86 0.49,-1.54 0.02,-0.3 0.02,-0.61 -0.01,-0.91 -0.05,-0.01 -0.11,-0.01 -0.17,0 z" id="path25" style="fill: rgb(78, 91, 49);"/><path class="cls-3" d="m 308.43,177.58 c 0,0 -0.06,0 -0.09,0 -0.36,0.04 -0.73,0.11 -1.08,0.22 -0.81,0.25 -1.53,0.79 -2.03,1.5 v 0 c 0,0 0,0 0,0 0.5,0.07 1.02,0.08 1.53,0.02 v 0 c 0.51,-0.05 1.02,-0.17 1.51,-0.34 0.84,-0.3 1.2,-0.66 1.35,-0.9 0.07,-0.1 0.11,-0.22 0.13,-0.33 0,-0.05 0,-0.09 0,-0.14 v 0 c -0.43,-0.06 -0.88,-0.07 -1.33,-0.03 z" id="path26" style="fill: rgb(78, 91, 49);"/><path class="cls-3" d="m 304.5,180.02 c -0.1,0.1 -0.17,0.23 -0.21,0.36 -0.04,0.11 -0.05,0.23 -0.02,0.34 0.04,0.09 0.13,0.14 0.23,0.13 v 0 c 0.12,-0.01 0.24,-0.08 0.31,-0.18 0.07,-0.1 0.12,-0.22 0.14,-0.33 0.03,-0.16 0.04,-0.31 0.04,-0.47 v 0 c 0,0 -0.1,-0.03 -0.15,-0.02 -0.12,0.02 -0.24,0.08 -0.33,0.18 z" id="path27" style="fill: rgb(78, 91, 49);"/><path class="cls-3" d="m 303.03,178.36 v 0 c 0.15,-0.01 0.3,-0.09 0.4,-0.21 0.09,-0.12 0.15,-0.25 0.18,-0.39 0.04,-0.18 0.06,-0.36 0.04,-0.53 -0.06,-0.02 -0.13,-0.03 -0.2,-0.02 h -0.01 c -0.32,0.03 -0.57,0.34 -0.68,0.62 -0.06,0.13 -0.07,0.26 -0.03,0.39 0.05,0.11 0.17,0.17 0.29,0.14 z" id="path28" style="fill: rgb(78, 91, 49);"/><path class="cls-3" d="m 298.27,181.85 c -0.73,0.08 -1.83,0.43 -2.99,1.68 v 0 c 0,0 0,0 0,0 0.48,0.02 0.97,0 1.46,-0.05 v 0 c 0.94,-0.1 1.65,-0.34 2.12,-0.7 0.2,-0.15 0.36,-0.35 0.47,-0.57 0.04,-0.08 0.06,-0.17 0.08,-0.26 -0.31,-0.09 -0.65,-0.13 -0.98,-0.11 -0.05,0 -0.1,0 -0.15,0.01 z" id="path29" style="fill: rgb(78, 91, 49);"/><path class="cls-3" d="m 301.61,178 c 0,0 -0.05,0 -0.07,0 -0.81,0.1 -2.27,0.62 -3.02,2.95 v 0 c 0,0 0,0 0,0 1.6,-0.41 2.51,-1.2 2.99,-1.78 0.3,-0.35 0.52,-0.75 0.66,-1.18 -0.16,-0.02 -0.33,-0.02 -0.49,0 -0.02,0 -0.04,0 -0.07,0 z" id="path30" style="fill: rgb(78, 91, 49);"/><path class="cls-3" d="m 309.62,176.61 c 0.06,-0.15 0.09,-0.32 0.07,-0.48 v 0 c -0.1,-0.02 -0.2,-0.02 -0.3,-0.01 h -0.02 c -0.4,0.03 -0.78,0.25 -1.02,0.6 -0.03,0.05 -0.13,0.23 -0.05,0.35 0.07,0.1 0.22,0.13 0.45,0.11 v 0 c 0.61,-0.06 0.82,-0.42 0.88,-0.57 z" id="path31" style="fill: rgb(78, 91, 49);"/><path class="cls-3" d="m 306.95,173.68 c 0,0 -0.03,0 -0.04,0 -0.02,0 -0.04,0 -0.06,0 -0.31,0.04 -0.77,0.22 -1.29,0.83 -0.59,0.7 -1.12,1.81 -1.57,3.29 v 0 c 0,0 0,0 0,0 v 0 c 0.43,-0.24 0.84,-0.55 1.2,-0.9 0.93,-0.9 1.66,-1.99 2.12,-3.18 -0.11,-0.04 -0.24,-0.06 -0.37,-0.05 z" id="path32" style="fill: rgb(78, 91, 49);"/><path class="cls-3" d="m 302.51,181.29 c -0.06,0 -0.12,0.01 -0.19,0.02 -0.93,0.1 -1.64,0.35 -2.11,0.76 -0.13,0.09 -0.23,0.23 -0.28,0.38 -0.01,0.11 0.04,0.21 0.13,0.26 0.21,0.14 0.59,0.18 1.13,0.14 h 0.08 c 0,0 0,0 0,0 0.99,-0.1 2.35,-0.55 3.2,-1.49 v 0 c 0,0 0,0 0,0 -0.64,-0.08 -1.3,-0.1 -1.97,-0.05 z" id="path33" style="fill: rgb(78, 91, 49);"/><path class="cls-3" d="m 300.69,180.93 v 0 c 1.99,-0.28 3.03,-0.95 3.54,-1.47 0.22,-0.22 0.4,-0.47 0.54,-0.75 0.05,-0.1 0.09,-0.21 0.11,-0.32 v 0 c -0.16,-0.03 -0.33,-0.04 -0.49,-0.02 h -0.05 c -0.67,0.08 -2.04,0.5 -3.65,2.56 z" id="path34" style="fill: rgb(78, 91, 49);"/><path class="cls-3" d="m 297.08,181.46 c 0.15,-0.01 0.3,-0.09 0.4,-0.21 0.09,-0.11 0.15,-0.25 0.18,-0.38 0.04,-0.18 0.06,-0.36 0.04,-0.54 -0.06,-0.02 -0.13,-0.03 -0.2,-0.02 h -0.01 c -0.32,0.03 -0.57,0.34 -0.68,0.62 -0.06,0.13 -0.07,0.27 -0.03,0.39 0.05,0.11 0.17,0.16 0.3,0.14 z" id="path35" style="fill: rgb(78, 91, 49);"/><path class="cls-3" d="m 291.02,185.73 0.72,-0.41 -0.38,-0.39 -1.32,0.7 -0.08,0.02 h -0.08 c 0,0 -1.32,-0.43 -1.32,-0.43 l -0.38,0.47 0.72,0.26 0.11,0.02 -1.77,1.49 v 0 c 0,0 0.26,0.19 0.52,0.4 0.12,0.09 0.26,0.21 0.36,0.31 0.04,0.04 0.08,0.09 0.12,0.13 0.02,0.03 0.04,0.07 0.06,0.11 v 0 c 0,0 0.03,-0.02 0.04,-0.04 l 0.02,-0.02 c 0.07,-0.07 0.14,-0.15 0.2,-0.23 0.17,-0.21 0.39,-0.51 0.59,-0.78 0.39,-0.53 0.72,-0.99 0.78,-1.08 l 0.02,-0.03 0.02,0.03 c 0.06,0.07 0.39,0.46 0.78,0.91 0.2,0.23 0.43,0.48 0.59,0.66 0.06,0.07 0.13,0.13 0.2,0.19 h 0.02 c 0,0 0.03,0.03 0.04,0.04 v 0 c 0,0 0.04,-0.08 0.06,-0.12 0.04,-0.05 0.08,-0.11 0.12,-0.16 0.1,-0.12 0.25,-0.27 0.36,-0.39 0.26,-0.26 0.52,-0.51 0.52,-0.51 v 0 c 0,0 -1.77,-1.12 -1.77,-1.12 l 0.11,-0.05 z" id="path36" style="fill: rgb(78, 91, 49);"/><polygon class="cls-2" points="325.05,133.55 325.04,133.55 325.05,133.56 " id="polygon36" style="fill: rgb(213, 120, 0);"/><path class="cls-2" d="m 324.75,133.7 -0.12,0.06 -0.36,0.02 -0.34,0.2 -0.6,0.47 -0.03,0.02 -0.22,0.08 -0.21,-0.07 -0.12,0.07 -0.04,0.25 -0.11,0.19 -0.14,0.11 -0.48,0.1 -0.4,0.25 -0.53,-0.09 -0.24,0.12 -0.52,0.52 -0.27,0.15 h -0.09 c 0,0 -0.35,0.02 -0.35,0.02 l -0.15,0.06 -0.22,0.24 -0.42,0.08 -0.13,0.1 -0.2,0.43 -0.22,0.25 -0.13,0.04 -0.14,-0.04 -0.1,0.03 -0.05,0.27 -0.1,0.12 -0.28,0.13 -0.22,0.21 -0.2,0.12 -0.26,0.02 h -0.06 c 0,0 -0.26,0.18 -0.26,0.18 l -0.49,0.1 -0.21,0.22 -0.05,0.05 -0.1,0.07 -0.16,0.11 -0.04,0.03 h -0.19 c 0,0 -0.22,0.1 -0.22,0.1 l -0.09,-0.13 -0.15,0.11 -0.2,0.03 -0.25,-0.09 -0.19,-0.07 -0.14,0.04 -0.05,0.25 v 0.03 c 0,0 -0.15,0.21 -0.15,0.21 l -0.28,0.2 -0.04,0.05 -0.31,0.44 -0.6,0.69 -0.51,0.31 -0.52,0.21 -0.37,0.34 -0.96,0.58 -1.52,0.92 -0.31,0.13 -0.45,0.12 -0.79,0.38 -0.7,0.29 -0.04,0.02 -0.14,0.06 -0.99,0.4 h -0.46 c 0,0 -0.27,0.13 -0.27,0.13 h -0.71 c 0,0 -0.49,0.06 -0.49,0.06 l -0.31,0.1 -0.59,0.34 -0.99,0.58 -0.33,0.33 -0.51,0.32 -0.6,0.25 v -0.25 c 0,0 0,-0.01 0,-0.01 l -0.21,0.09 -0.15,0.06 -0.48,0.13 -0.27,0.03 -0.17,-0.03 h -0.03 c 0,0 -0.99,0.44 -0.99,0.44 l -1.1,0.22 -0.55,0.24 -0.41,0.04 -0.26,0.1 -0.51,0.12 -0.18,-0.03 h -0.04 c 0,0 -1.49,0.21 -1.49,0.21 h -0.68 c 0,0 -0.32,0.1 -0.32,0.1 l -0.54,-0.13 h -0.79 c 0,0 -0.19,-0.04 -0.19,-0.04 l -0.42,-0.08 -0.19,0.13 -0.14,0.03 -0.34,-0.09 h -0.12 c 0,0 -0.28,0.14 -0.28,0.14 l -0.16,-0.02 -0.15,-0.1 -0.35,-0.02 -0.21,-0.16 -1.19,0.28 -0.32,-0.06 -1.08,-0.2 -0.17,0.03 -0.22,0.18 -0.32,0.15 -0.28,0.1 -0.38,0.05 -0.44,-0.07 -0.46,-0.17 -0.17,-0.02 -0.38,0.08 -0.12,0.02 -0.69,-0.3 -0.89,-0.46 -0.6,-0.23 h -0.23 c 0,0 -0.03,0.1 -0.03,0.1 l 0.11,0.34 0.04,0.35 v 0.33 c 0,0 -0.02,0.2 -0.02,0.2 l 0.06,0.17 0.22,0.22 0.09,0.23 0.07,0.66 v 0.68 c 0,0 -0.11,1.09 -0.11,1.09 l -0.04,0.17 -0.13,0.57 -0.12,0.53 -0.45,1.42 -0.12,0.18 -0.3,0.24 -0.69,0.54 -0.51,0.34 -0.16,0.08 -0.41,0.07 h -0.26 c 0,0 -0.32,-0.12 -0.32,-0.12 l -0.31,-0.05 -0.41,-0.25 -0.46,-0.05 -0.5,-0.24 -0.13,-0.14 h -0.27 c 0,0 -0.38,-0.07 -0.38,-0.07 v 0 c 0,0 -0.14,-0.03 -0.14,-0.03 l -0.1,-0.02 -0.48,0.04 -0.45,-0.16 -0.24,-0.03 -0.32,0.02 -0.34,0.19 -0.17,0.1 -0.22,-0.06 -0.16,0.03 -0.18,0.29 -0.02,0.04 -0.12,0.08 h -0.15 c 0,0 -0.12,0.02 -0.12,0.02 l -0.13,0.07 -0.17,0.09 -0.15,0.08 -0.07,0.04 v 0 c 0,0 -0.05,0.01 -0.05,0.01 l -0.08,0.02 -0.1,0.03 -0.18,-0.09 -0.09,-0.05 -0.16,-0.02 -0.09,0.07 -0.02,0.29 -0.08,0.18 -0.25,0.25 -0.25,0.25 -0.18,0.28 -0.47,1.11 -0.29,0.46 -0.09,0.11 -0.31,0.37 -0.27,0.24 -0.62,0.55 -0.59,0.28 -0.51,0.16 -0.25,0.03 h -0.47 c 0,0 -0.42,-0.1 -0.42,-0.1 l -0.46,-0.24 -0.51,-0.35 -0.73,-0.65 -0.1,-0.05 h -0.02 c 0,0 -0.23,-0.14 -0.23,-0.14 l -0.17,0.02 -0.07,0.12 -0.04,0.16 -0.03,0.15 -0.08,0.82 v 0.05 c 0,0 0.05,0.33 0.05,0.33 l 0.56,0.72 0.17,0.4 0.03,0.04 0.11,0.18 0.09,0.14 v 0 c 0,0 0.19,0.56 0.19,0.56 l -0.13,0.33 0.07,0.21 -0.17,0.15 -0.03,0.19 0.5,0.57 0.11,0.27 -0.12,0.4 -0.19,0.23 -0.05,0.06 0.03,0.16 0.23,0.18 0.39,0.31 0.21,0.5 0.16,0.12 0.18,-0.06 0.1,0.07 0.16,-0.02 0.15,0.14 0.1,0.04 0.16,0.06 0.12,0.15 0.03,0.49 0.23,0.59 v 0.33 c 0,0 0,0.05 0,0.05 l 0.14,0.23 0.05,0.19 -0.08,0.52 0.18,0.15 0.2,-0.06 h 0.13 c 0,0 0.21,0.16 0.21,0.16 l 0.25,0.35 0.24,-0.06 0.15,0.06 0.75,0.6 0.17,0.07 v 0 c 0,0 0.12,0.05 0.12,0.05 l 0.15,0.14 0.23,-0.18 h 0.03 c 0,0 0.26,-0.05 0.26,-0.05 l 0.11,0.06 0.22,0.12 0.28,-0.03 0.61,0.12 0.27,0.04 0.54,0.28 0.23,0.12 0.14,0.1 0.18,0.13 0.36,0.12 0.31,0.04 0.17,0.02 0.13,0.04 v 0 c 0,0 0,0 0,0 v 0 c 0,0 0.67,0.19 0.67,0.19 l 0.36,0.05 0.34,0.09 0.24,0.06 0.18,-0.02 0.25,-0.24 0.25,-0.04 0.2,0.03 0.2,-0.05 0.31,-0.23 0.06,-0.1 0.22,-0.13 0.75,-0.17 0.22,0.05 0.56,-0.3 0.38,0.07 0.33,-0.15 0.73,0.09 0.19,0.12 0.22,0.23 h 0.03 c 0,0 0.24,-0.02 0.24,-0.02 l -0.1,0.18 0.32,0.3 0.29,0.41 0.02,0.06 0.21,0.59 0.16,0.2 0.11,0.29 v 0.2 c 0,0 -0.16,0.15 -0.16,0.15 l -0.03,0.08 v 0.03 c 0,0 0.02,0.08 0.02,0.08 l 0.06,-0.04 0.12,-0.08 0.15,-0.04 h 0.26 c 0,0 0.17,0 0.17,0 l 0.27,-0.16 0.18,-0.11 0.29,0.09 0.32,-0.04 0.13,0.05 0.38,0.13 h 0.19 c 0,0 0.07,-0.06 0.07,-0.06 l 0.05,-0.11 -0.02,-0.12 -0.15,-0.15 -0.32,-0.34 -0.13,-0.18 -0.1,-0.27 -0.03,-0.35 -0.02,-0.24 0.04,-0.32 0.09,-0.12 0.06,-0.26 v 0 c 0,0 0.02,-0.07 0.02,-0.07 l 0.18,-0.26 0.47,-0.35 0.51,-0.51 0.4,-0.31 0.41,-0.22 v -0.05 c 0,0 0.06,0.01 0.06,0.01 l 1.05,-0.47 h 0.02 c 0,0 0.47,-0.13 0.47,-0.13 l 3.16,-0.11 0.12,-0.05 v 0 c 0,0 0.11,-0.31 0.11,-0.31 l 0.06,-0.06 0.04,-0.04 0.35,-0.19 0.16,-0.04 0.45,0.06 0.18,0.03 0.3,-0.2 0.21,-0.02 0.43,-0.28 0.27,-0.02 0.1,-0.05 0.52,-0.43 0.5,-0.2 0.13,-0.08 0.05,-0.03 0.51,-0.33 0.33,-0.29 0.28,-0.18 0.31,-0.11 0.81,-0.14 0.16,-0.29 0.35,-0.08 0.21,-0.26 0.24,-0.12 0.17,-0.27 0.14,-0.22 0.2,-0.14 0.65,-0.11 h 0.77 c 0,0 0.1,-0.06 0.1,-0.06 l 0.17,-0.64 0.18,-0.13 0.49,-0.76 v -0.26 c 0,0 0,-0.22 0,-0.22 l 0.08,-0.32 -0.05,-0.55 0.06,-0.57 0.3,-0.75 0.27,-0.32 0.43,-0.34 0.22,-0.12 0.31,-0.08 v 0 c 0,0 0.05,-0.01 0.05,-0.01 l 0.08,-0.02 1.07,-0.13 c 0,0 0.39,-0.05 0.39,-0.05 l 0.36,-0.04 0.9,0.07 h 0.06 c 0,0 0.3,0.07 0.3,0.07 l 0.35,0.24 0.37,0.32 0.07,0.06 0.24,0.08 0.07,0.02 0.2,-0.05 0.28,-0.18 0.21,-0.2 0.29,-0.19 v 0 c 0,0 0.16,-0.27 0.16,-0.27 v 0 c 0,0 0,0 0,0 v 0 c 0,0 0,0 0,0 l 0.06,-0.1 0.56,-0.28 0.66,-0.11 0.07,-0.05 0.04,-0.03 0.18,-0.22 0.16,-0.02 0.4,0.1 0.28,-0.08 0.22,0.07 0.17,-0.04 0.32,-0.07 0.35,0.21 h 0.2 c 0,0 0.72,0.35 0.72,0.35 h 0.04 c 0,0 0.02,0 0.02,0 h 0.04 c 0,0 0.08,-0.03 0.08,-0.03 l 0.13,-0.05 h 0.02 c 0,0 0.02,0.01 0.02,0.01 l 0.08,0.11 h 0.11 c 0,0 0.13,-0.19 0.13,-0.19 l -0.05,-0.07 -0.02,-0.03 -0.26,-0.03 -0.23,-0.37 0.22,-0.26 -0.34,-0.39 -0.06,-0.06 -0.02,-0.03 -0.12,-0.17 -0.6,-0.85 -0.78,-0.54 -0.27,-0.19 v 0 c 0,0 -0.1,-0.07 -0.1,-0.07 l -0.42,-0.38 -0.3,-0.36 -0.04,-0.08 -0.06,-0.13 -0.18,-0.37 -0.31,-0.21 -0.25,-0.25 v -0.02 c 0,0 -0.54,-0.66 -0.54,-0.66 l -0.09,-0.11 -0.12,-0.06 -0.26,0.03 -0.03,-0.02 h -0.01 c 0,0 0,-0.02 0,-0.02 l 0.13,-0.14 0.14,-0.05 0.06,-0.14 -0.27,-0.74 v -0.03 c 0,0 -0.02,-0.24 -0.02,-0.24 l 0.22,-1.14 0.03,-0.14 0.37,-0.79 0.23,-0.21 0.25,-0.52 0.22,-0.34 0.21,-0.22 0.04,-0.03 0.37,-0.26 0.31,-0.08 0.3,-0.07 0.52,0.11 0.49,-0.06 0.1,-0.02 0.22,-0.05 0.37,-0.15 0.17,-0.13 0.09,-0.15 0.19,-0.65 0.06,-0.21 0.12,-0.23 0.67,-0.84 0.51,-0.52 1.14,-0.96 0.56,-0.39 0.29,-0.2 2.55,-1.4 0.66,-0.74 0.35,-0.39 0.61,-0.47 0.71,-0.37 0.61,-0.55 0.13,-0.18 0.17,-0.56 0.14,-0.05 0.13,-0.29 0.04,-0.08 0.5,-0.41 0.06,-0.03 1.95,-1.18 h 0.28 c 0,0 0.15,-0.23 0.15,-0.23 l 0.57,-0.15 0.1,-0.03 0.14,-0.08 0.12,-0.22 v -0.04 l 0.02,-0.54 0.12,-0.16 0.07,-0.36 0.06,-0.09 0.06,-0.09 0.16,-0.13 -0.03,-0.06 -0.3,0.15 z" id="path37" style="fill: rgb(213, 120, 0);"/></g></g></g></g><path class="cls-1" d="M 99.722 231.541 C 101.585 233.574 104.305 233.076 105.56 230.435 C 135.35 167.569 225.843 139.135 225.843 59.033 C 225.843 29.922 206.246 0.69 168.566 0.013 C 132.699 -0.635 100.509 22.469 97.152 59.87 C 96.145 36.188 80.613 25.269 62.7 25.269 C 27.461 25.269 -1.402 57.081 0.053 104.952 C 2.474 180.242 74.855 203.964 99.722 231.541 Z M 93.326 77.913 C 94.282 81.669 98.865 81.54 99.901 77.823 C 115.414 21.593 186.748 15.446 186.748 72.384 C 186.748 117.336 107.075 165.298 101.007 207.969 C 86.591 179.973 33.638 164.6 33.638 103.747 C 33.638 51.96 83.991 41.08 93.326 77.913 Z" style="stroke-width: 0.996;" id="object-0"/></svg>